HIERARCHY
ROOT pelvis
{
  OFFSET 0 100 0
  CHANNELS 6 Xposition Yposition Zposition Zrotation Xrotation Yrotation
  JOINT pelvis_right_femur
  {
    OFFSET -10.78128 -3.44521 -0.5502486
    CHANNELS 3 Zrotation Xrotation Yrotation
    JOINT right_femur_tibia
    {
      OFFSET -0.8047443 -44.0398 -0.1307829
      CHANNELS 3 Zrotation Xrotation Yrotation
      JOINT right_tibia_foot
      {
        OFFSET 3.006224 -47.83518 -5
        CHANNELS 3 Zrotation Xrotation Yrotation
        End Site
        {
          OFFSET 0 -5 15
        }
      }
    }
  }
  JOINT pelvis_left_femur
  {
    OFFSET 10.78128 -3.44521 -0.5502486
    CHANNELS 3 Zrotation Xrotation Yrotation
    JOINT left_femur_tibia
    {
      OFFSET 0.8047443 -44.0398 -0.1307829
      CHANNELS 3 Zrotation Xrotation Yrotation
      JOINT left_tibia_foot
      {
        OFFSET -4.370144 -48.10324 -4.275266
        CHANNELS 3 Zrotation Xrotation Yrotation
        End Site
        {
          OFFSET 0 -5 15
        }
      }
    }
  }
  JOINT pelvis_spine1
  {
    OFFSET 0 6.468898 -3.129235
    CHANNELS 3 Zrotation Xrotation Yrotation
    JOINT spine1
    {
      OFFSET 0 23.15396 4.99043
      CHANNELS 3 Zrotation Xrotation Yrotation
      JOINT spine2
      {
        OFFSET 0 20.79997 -5.064912
        CHANNELS 3 Zrotation Xrotation Yrotation
        JOINT neck
        {
          OFFSET 0 14.38658 9.616178
          CHANNELS 3 Zrotation Xrotation Yrotation
          End Site
          {
            OFFSET 0 20 0
          }
        }
      }
      JOINT right_manubrium
      {
        OFFSET -5.722621 16.35077 3.967754
        CHANNELS 3 Zrotation Xrotation Yrotation
        JOINT right_clavicle
        {
          OFFSET -13.16364 1.694482 -4.693211
          CHANNELS 3 Zrotation Xrotation Yrotation
          JOINT right_humerus
          {
            OFFSET -28.5034 -0.3100689 -2.792744
            CHANNELS 3 Zrotation Xrotation Yrotation
            JOINT right_radius
            {
              OFFSET -25.15693 0.02248979 -1.271978
              CHANNELS 3 Zrotation Xrotation Yrotation
              End Site
              {
                OFFSET -15 0 0
              }
            }
          }
        }
      }
      JOINT left_manubrium
      {
        OFFSET 5.722621 16.35077 3.967754
        CHANNELS 3 Zrotation Xrotation Yrotation
        JOINT left_clavicle
        {
          OFFSET 13.16364 1.694482 -4.693211
          CHANNELS 3 Zrotation Xrotation Yrotation
          JOINT left_humerus
          {
            OFFSET 29.39168 -1.063119 -2.237045
            CHANNELS 3 Zrotation Xrotation Yrotation
            JOINT left_radius
            {
              OFFSET 24.59957 -0.9528479 0.9047498
              CHANNELS 3 Zrotation Xrotation Yrotation
              End Site
              {
                OFFSET 15 -0 -0
              }
            }
          }
        }
      }
    }
  }
}
MOTION
Frames: 7
Frame Time: 0.0416666666667
-806.8192 101.3721 2085.28 -5.295618 -1.130659 -87.06191 4.65856 6.174677 3.057626 -0 8.082465 -0 -5.91978 -10.83043 -1.172641 -0.347214 -19.27598 -4.907272 -0 49.07466 -0 -5.022086 -5.941022 16.01911 1.566791 0.1958789 8.700563 -1.614101 12.97631 -3.105001 1.995072 18.92007 0.2427146 -3.523611 -20.40927 5.810022 -7.059577 -32.29216 8.99775 89.90419 22.41024 -2.383542 -0 0 33.66665 -20.63864 12.21343 17.17256 0.6749074 -15.84722 -3.488365 -94.17169 12.95747 42.42879 0 0 -11.87165 0.6144954 5.853783 17.68181
-812.0644 100.7459 2085.744 -5.663746 -0.7599142 -87.55989 4.995799 9.971236 2.766976 -0 7.534014 -0 -5.178805 -13.1097 -1.074655 1.544787 -22.86126 -3.301357 -0 37.65984 -0 -4.480317 -6.137835 17.66165 1.566484 0.1954782 8.70064 -1.613757 12.97551 -3.104671 1.994868 18.92023 0.2432015 -3.523322 -20.40976 5.810082 -7.059612 -32.2927 8.997561 89.90257 22.40824 -2.381788 -0 0 33.66837 -20.63946 12.21311 17.17386 0.6754422 -15.8463 -3.48778 -94.17426 12.95854 42.43046 0 0 -11.86843 0.6132591 5.853163 17.68272
-817.4893 99.67002 2086.345 -5.190964 -0.1464831 -88.08312 5.114043 13.17488 2.280111 -0 7.861305 -0 -4.960925 -15.75341 -0.5431673 2.896474 -25.50079 -2.459935 -0 26.49308 -0 -4.154418 -6.047821 18.64212 1.566228 0.1952177 8.700556 -1.613469 12.97494 -3.104526 1.994778 18.92061 0.2436623 -3.523026 -20.41019 5.810244 -7.059634 -32.29257 8.997419 89.90188 22.40672 -2.381302 -0 0 33.66837 -20.63984 12.2126 17.17429 0.6758863 -15.84601 -3.487492 -94.17587 12.95977 42.43075 0 0 -11.86651 0.6126304 5.853015 17.6832
-823.2035 98.38868 2087.103 -4.328751 0.339165 -88.63763 4.735156 15.87841 1.773586 -0 9.096979 -0 -5.008151 -17.56284 0.2539146 3.279109 -27.00579 -2.610962 -0 17.93303 -0 -4.023343 -5.842682 19.14752 1.566037 0.1951096 8.700305 -1.613253 12.97464 -3.10459 1.994812 18.92118 0.2440717 -3.522732 -20.41053 5.810497 -7.059633 -32.29177 8.997343 89.9022 22.40577 -2.382184 -0 0 33.66655 -20.63977 12.21193 17.1738 0.6762101 -15.84642 -3.487544 -94.1764 12.96109 42.42957 0 0 -11.86605 0.6126741 5.853383 17.68319
-829.2808 97.10904 2087.995 -3.790918 0.4583395 -89.22018 3.860634 18.2519 1.363204 -0 11.34437 -0 -5.174797 -17.54487 0.9497157 2.627709 -27.24072 -3.696729 -0 13.14587 -0 -4.097826 -5.844596 19.59112 1.56593 0.1951752 8.699913 -1.61313 12.97463 -3.104847 1.994968 18.9219 0.2443927 -3.522476 -20.41075 5.810827 -7.059621 -32.29035 8.997329 89.90351 22.40549 -2.384335 -0 0 33.66311 -20.63924 12.21113 17.17241 0.6763873 -15.84747 -3.487911 -94.1758 12.96241 42.42703 0 0 -11.86709 0.6133821 5.854213 17.6827
-835.749 96.00815 2088.985 -3.975503 0.1556168 -89.7938 2.624352 20.28104 1.139435 -0 14.86861 -0 -5.358879 -15.21831 1.327009 1.186611 -26.28976 -5.376828 -0 11.90925 -0 -4.249313 -6.237891 20.17575 1.565917 0.1954165 8.699426 -1.613113 12.97487 -3.105255 1.995227 18.9227 0.2445937 -3.522293 -20.41084 5.811205 -7.059613 -32.28849 8.997362 89.90561 22.40589 -2.387468 -0 0 33.65846 -20.63829 12.21028 17.1703 0.6764075 -15.849 -3.488525 -94.17418 12.96359 42.42346 0 0 -11.86945 0.6146549 5.855379 17.6818
-842.5893 95.28158 2090.047 -4.723731 -0.4867774 -90.25976 1.175011 21.54213 1.207288 -0 20.10792 -0 -5.399561 -10.52715 1.419925 -0.679774 -24.31678 -7.154754 -0 13.15037 -0 -4.161303 -6.928807 20.71612 1.565995 0.1958124 8.698893 -1.613199 12.97531 -3.105767 1.995562 18.92351 0.2446624 -3.522203 -20.4108 5.811602 -7.059617 -32.28635 8.99743 89.9083 22.40693 -2.391253 -0 0 33.65306 -20.63703 12.20943 17.16767 0.6762779 -15.85085 -3.489308 -94.17173 12.96455 42.41921 0 0 -11.87287 0.6163536 5.856749 17.68061
